<svg width="100" height="100" viewBox="0 0 100 100" fill="none" xmlns="http://www.w3.org/2000/svg">
<mask id="mask0_44_2" style="mask-type:luminance" maskUnits="userSpaceOnUse" x="4" y="7" width="92" height="87">
<path d="M20.5375 68.2437C12.9959 70.5062 8.33337 73.6312 8.33337 77.0832C8.33337 83.9874 26.9875 89.5832 50 89.5832C73.0125 89.5832 91.6667 83.9874 91.6667 77.0832C91.6667 73.6312 87.0021 70.5062 79.4625 68.2437" stroke="white" stroke-width="7" stroke-linecap="round" stroke-linejoin="round"/>
<path d="M50.0001 72.9166C50.0001 72.9166 77.0834 55.2166 77.0834 34.7541C77.0834 20.1624 64.9584 8.33325 50.0001 8.33325C35.0417 8.33325 22.9167 20.1624 22.9167 34.7541C22.9167 55.2166 50.0001 72.9166 50.0001 72.9166Z" fill="white" stroke="white" stroke-width="2" stroke-linejoin="round"/>
<path d="M50 45.8333C52.7627 45.8333 55.4122 44.7359 57.3657 42.7824C59.3192 40.8289 60.4167 38.1793 60.4167 35.4167C60.4167 32.654 59.3192 30.0045 57.3657 28.051C55.4122 26.0975 52.7627 25 50 25C47.2374 25 44.5878 26.0975 42.6343 28.051C40.6808 30.0045 39.5834 32.654 39.5834 35.4167C39.5834 38.1793 40.6808 40.8289 42.6343 42.7824C44.5878 44.7359 47.2374 45.8333 50 45.8333Z" fill="black" stroke="black" stroke-width="2" stroke-linejoin="round"/>
</mask>
<g mask="url(#mask0_44_2)">
<path d="M0 0H100V100H0V0Z" fill="white"/>
</g>
</svg>
