<svg width="113" height="113" viewBox="0 0 113 113" fill="none" xmlns="http://www.w3.org/2000/svg">
<path d="M77.0283 65.9167C77.405 62.8092 77.6875 59.7017 77.6875 56.5001C77.6875 53.2984 77.405 50.1909 77.0283 47.0834H92.9425C93.6958 50.0967 94.1666 53.2513 94.1666 56.5001C94.1666 59.7488 93.6958 62.9034 92.9425 65.9167M68.6945 92.0951C71.5195 86.8688 73.6854 81.2188 75.192 75.3334H89.0816C84.52 83.1882 77.2831 89.1382 68.6945 92.0951ZM67.5175 65.9167H45.4825C45.0116 62.8092 44.7291 59.7017 44.7291 56.5001C44.7291 53.2984 45.0116 50.1438 45.4825 47.0834H67.5175C67.9412 50.1438 68.2708 53.2984 68.2708 56.5001C68.2708 59.7017 67.9412 62.8092 67.5175 65.9167ZM56.5 93.9784C52.592 88.3284 49.4375 82.0663 47.507 75.3334H65.4929C63.5625 82.0663 60.4079 88.3284 56.5 93.9784ZM37.6666 37.6667H23.9183C28.4319 29.7899 35.664 23.8301 44.2583 20.9051C41.4333 26.1313 39.3145 31.7813 37.6666 37.6667ZM23.9183 75.3334H37.6666C39.3145 81.2188 41.4333 86.8688 44.2583 92.0951C35.681 89.1397 28.4585 83.1878 23.9183 75.3334ZM20.0575 65.9167C19.3041 62.9034 18.8333 59.7488 18.8333 56.5001C18.8333 53.2513 19.3041 50.0967 20.0575 47.0834H35.9716C35.595 50.1909 35.3125 53.2984 35.3125 56.5001C35.3125 59.7017 35.595 62.8092 35.9716 65.9167M56.5 18.9747C60.4079 24.6247 63.5625 30.9338 65.4929 37.6667H47.507C49.4375 30.9338 52.592 24.6247 56.5 18.9747ZM89.0816 37.6667H75.192C73.7162 31.836 71.5342 26.2072 68.6945 20.9051C77.3579 23.8713 84.5616 29.8509 89.0816 37.6667ZM56.5 9.41675C30.4629 9.41675 9.41663 30.6042 9.41663 56.5001C9.41663 68.9874 14.3772 80.9632 23.207 89.793C27.5791 94.1651 32.7695 97.6332 38.4819 99.9994C44.1944 102.366 50.3169 103.583 56.5 103.583C68.9872 103.583 80.9631 98.6229 89.7929 89.793C98.6227 80.9632 103.583 68.9874 103.583 56.5001C103.583 50.317 102.365 44.1945 99.9993 38.4821C97.6331 32.7697 94.165 27.5792 89.7929 23.2071C85.4208 18.835 80.2304 15.3669 74.518 13.0008C68.8056 10.6346 62.683 9.41675 56.5 9.41675Z" fill="white"/>
<path d="M99.3485 95.8455L96.0997 91.3221L94.7181 92.3136C93.3049 93.3303 92.5975 93.8375 91.9677 93.5873C91.3379 93.337 91.1732 92.4811 90.8435 90.7722L89.7449 85.0692C89.0872 81.6588 88.7568 79.9539 89.7216 79.2609C90.6865 78.5679 92.1979 79.4238 95.2204 81.1376L100.274 83.9991C101.788 84.8575 102.545 85.2867 102.582 85.9636C102.619 86.6405 101.912 87.1477 100.497 88.1631L99.1161 89.1557L102.365 93.6791C102.701 94.1478 102.87 94.3821 102.926 94.6223C103 94.9416 102.945 95.2771 102.772 95.5568C102.643 95.7656 102.409 95.9339 101.94 96.2705C101.471 96.6071 101.237 96.7754 100.997 96.8313C100.677 96.9058 100.341 96.8507 100.062 96.678C99.8534 96.5485 99.6861 96.3144 99.3485 95.8455Z" fill="#000D1D" stroke="white" stroke-width="3" stroke-linecap="round" stroke-linejoin="round"/>
</svg>
