<svg width="100" height="100" viewBox="0 0 100 100" fill="none" xmlns="http://www.w3.org/2000/svg">
<g clip-path="url(#clip0_44_12)">
<path d="M28.365 0C29.2933 0 30.1835 0.368749 30.8399 1.02513C31.4963 1.6815 31.865 2.57174 31.865 3.5V10.045H69.45V3.545C69.45 2.61674 69.8187 1.7265 70.4751 1.07013C71.1315 0.413749 72.0217 0.045 72.95 0.045C73.8783 0.045 74.7685 0.413749 75.4249 1.07013C76.0812 1.7265 76.45 2.61674 76.45 3.545V10.045H90C92.6513 10.045 95.1941 11.0979 97.0693 12.9722C98.9445 14.8464 99.9987 17.3887 100 20.04V90.005C99.9987 92.6563 98.9445 95.1986 97.0693 97.0728C95.1941 98.9471 92.6513 100 90 100H10C7.3487 100 4.80592 98.9471 2.9307 97.0728C1.05548 95.1986 0.00132565 92.6563 0 90.005L0 20.04C0.00132565 17.3887 1.05548 14.8464 2.9307 12.9722C4.80592 11.0979 7.3487 10.045 10 10.045H24.865V3.495C24.8663 2.56761 25.2357 1.67865 25.8919 1.02336C26.5481 0.368062 27.4376 -9.46317e-07 28.365 0ZM7 38.71V90.005C7 90.399 7.0776 90.7891 7.22836 91.153C7.37913 91.517 7.6001 91.8477 7.87868 92.1263C8.15726 92.4049 8.48797 92.6259 8.85195 92.7766C9.21593 92.9274 9.60603 93.005 10 93.005H90C90.394 93.005 90.7841 92.9274 91.1481 92.7766C91.512 92.6259 91.8427 92.4049 92.1213 92.1263C92.3999 91.8477 92.6209 91.517 92.7716 91.153C92.9224 90.7891 93 90.399 93 90.005V38.78L7 38.71ZM33.335 73.095V81.425H25V73.095H33.335ZM54.165 73.095V81.425H45.835V73.095H54.165ZM75 73.095V81.425H66.665V73.095H75ZM33.335 53.21V61.54H25V53.21H33.335ZM54.165 53.21V61.54H45.835V53.21H54.165ZM75 53.21V61.54H66.665V53.21H75ZM24.865 17.04H10C9.60603 17.04 9.21593 17.1176 8.85195 17.2684C8.48797 17.4191 8.15726 17.6401 7.87868 17.9187C7.6001 18.1973 7.37913 18.528 7.22836 18.8919C7.0776 19.2559 7 19.646 7 20.04V31.715L93 31.785V20.04C93 19.646 92.9224 19.2559 92.7716 18.8919C92.6209 18.528 92.3999 18.1973 92.1213 17.9187C91.8427 17.6401 91.512 17.4191 91.1481 17.2684C90.7841 17.1176 90.394 17.04 90 17.04H76.45V21.685C76.45 22.6133 76.0812 23.5035 75.4249 24.1599C74.7685 24.8163 73.8783 25.185 72.95 25.185C72.0217 25.185 71.1315 24.8163 70.4751 24.1599C69.8187 23.5035 69.45 22.6133 69.45 21.685V17.04H31.865V21.64C31.865 22.5683 31.4963 23.4585 30.8399 24.1149C30.1835 24.7713 29.2933 25.14 28.365 25.14C27.4367 25.14 26.5465 24.7713 25.8901 24.1149C25.2337 23.4585 24.865 22.5683 24.865 21.64V17.04Z" fill="white"/>
</g>
<defs>
<clipPath id="clip0_44_12">
<rect width="100" height="100" fill="white"/>
</clipPath>
</defs>
</svg>
